<svg id="visual" viewBox="0 0 900 300" width="900" height="300" xmlns="http://www.w3.org/2000/svg" xmlns:xlink="http://www.w3.org/1999/xlink" version="1.1"><path d="M0 22L13.7 24C27.3 26 54.7 30 82 34C109.3 38 136.7 42 163.8 46C191 50 218 54 245.2 51C272.3 48 299.7 38 327 37.5C354.3 37 381.7 46 409 44.5C436.3 43 463.7 31 491 26.5C518.3 22 545.7 25 573 25.5C600.3 26 627.7 24 654.8 28.5C682 33 709 44 736.2 47.5C763.3 51 790.7 47 818 48C845.3 49 872.7 55 886.3 58L900 61L900 0L886.3 0C872.7 0 845.3 0 818 0C790.7 0 763.3 0 736.2 0C709 0 682 0 654.8 0C627.7 0 600.3 0 573 0C545.7 0 518.3 0 491 0C463.7 0 436.3 0 409 0C381.7 0 354.3 0 327 0C299.7 0 272.3 0 245.2 0C218 0 191 0 163.8 0C136.7 0 109.3 0 82 0C54.7 0 27.3 0 13.7 0L0 0Z" fill="#9d8ed9"></path><path d="M0 136L13.7 131C27.3 126 54.7 116 82 119.5C109.3 123 136.7 140 163.8 147.5C191 155 218 153 245.2 143.5C272.3 134 299.7 117 327 107.5C354.3 98 381.7 96 409 96C436.3 96 463.7 98 491 109.5C518.3 121 545.7 142 573 145.5C600.3 149 627.7 135 654.8 131C682 127 709 133 736.2 128.5C763.3 124 790.7 109 818 104.5C845.3 100 872.7 106 886.3 109L900 112L900 59L886.3 56C872.7 53 845.3 47 818 46C790.7 45 763.3 49 736.2 45.5C709 42 682 31 654.8 26.5C627.7 22 600.3 24 573 23.5C545.7 23 518.3 20 491 24.5C463.7 29 436.3 41 409 42.5C381.7 44 354.3 35 327 35.5C299.7 36 272.3 46 245.2 49C218 52 191 48 163.8 44C136.7 40 109.3 36 82 32C54.7 28 27.3 24 13.7 22L0 20Z" fill="#8975cf"></path><path d="M0 187L13.7 176.5C27.3 166 54.7 145 82 145.5C109.3 146 136.7 168 163.8 179C191 190 218 190 245.2 178.5C272.3 167 299.7 144 327 132.5C354.3 121 381.7 121 409 126C436.3 131 463.7 141 491 156C518.3 171 545.7 191 573 194C600.3 197 627.7 183 654.8 176C682 169 709 169 736.2 159.5C763.3 150 790.7 131 818 126C845.3 121 872.7 130 886.3 134.5L900 139L900 110L886.3 107C872.7 104 845.3 98 818 102.5C790.7 107 763.3 122 736.2 126.5C709 131 682 125 654.8 129C627.7 133 600.3 147 573 143.5C545.7 140 518.3 119 491 107.5C463.7 96 436.3 94 409 94C381.7 94 354.3 96 327 105.5C299.7 115 272.3 132 245.2 141.5C218 151 191 153 163.8 145.5C136.7 138 109.3 121 82 117.5C54.7 114 27.3 124 13.7 129L0 134Z" fill="#755dc5"></path><path d="M0 229L13.7 225.5C27.3 222 54.7 215 82 220C109.3 225 136.7 242 163.8 246.5C191 251 218 243 245.2 233.5C272.3 224 299.7 213 327 206.5C354.3 200 381.7 198 409 195C436.3 192 463.7 188 491 197C518.3 206 545.7 228 573 233C600.3 238 627.7 226 654.8 219C682 212 709 210 736.2 198.5C763.3 187 790.7 166 818 161.5C845.3 157 872.7 169 886.3 175L900 181L900 137L886.3 132.5C872.7 128 845.3 119 818 124C790.7 129 763.3 148 736.2 157.5C709 167 682 167 654.8 174C627.7 181 600.3 195 573 192C545.7 189 518.3 169 491 154C463.7 139 436.3 129 409 124C381.7 119 354.3 119 327 130.5C299.7 142 272.3 165 245.2 176.5C218 188 191 188 163.8 177C136.7 166 109.3 144 82 143.5C54.7 143 27.3 164 13.7 174.5L0 185Z" fill="#6550ab"></path><path d="M0 301L13.7 301C27.3 301 54.7 301 82 301C109.3 301 136.7 301 163.8 301C191 301 218 301 245.2 301C272.3 301 299.7 301 327 301C354.3 301 381.7 301 409 301C436.3 301 463.7 301 491 301C518.3 301 545.7 301 573 301C600.3 301 627.7 301 654.8 301C682 301 709 301 736.2 301C763.3 301 790.7 301 818 301C845.3 301 872.7 301 886.3 301L900 301L900 179L886.3 173C872.7 167 845.3 155 818 159.5C790.7 164 763.3 185 736.2 196.5C709 208 682 210 654.8 217C627.7 224 600.3 236 573 231C545.7 226 518.3 204 491 195C463.7 186 436.3 190 409 193C381.7 196 354.3 198 327 204.5C299.7 211 272.3 222 245.2 231.5C218 241 191 249 163.8 244.5C136.7 240 109.3 223 82 218C54.7 213 27.3 220 13.7 223.5L0 227Z" fill="#554392"></path></svg>